<svg data-v-decfdd8a="" version="1.0" xmlns="http://www.w3.org/2000/svg" xmlns:xlink="http://www.w3.org/1999/xlink" width="100%" height="100%" viewBox="0 0 340.000000 250.000000" preserveAspectRatio="xMidYMid meet" color-interpolation-filters="sRGB" style="margin: auto;"> <rect data-v-decfdd8a="" x="0" y="0" width="100%" height="100%" fill="#fff" fill-opacity="1" class="background"></rect> <rect data-v-decfdd8a="" x="0" y="0" width="100%" height="100%" fill="url(#watermark)" fill-opacity="1" class="watermarklayer"></rect> <g data-v-decfdd8a="" fill="#333" class="icon-text-wrapper icon-svg-group iconsvg" transform="translate(48.5,96.67513084411621)"><g class="iconsvg-imagesvg" transform="translate(0,0)"><g><rect fill="#333" fill-opacity="0" stroke-width="2" x="0" y="0" width="60" height="56.649734690409204" class="image-rect"></rect> <svg x="0" y="0" width="60" height="56.649734690409204" filtersec="colorsb3125050038" class="image-svg-svg primary" style="overflow: visible;"><svg xmlns="http://www.w3.org/2000/svg" viewBox="0 0 98.5 93"><title>页面-1 (2)</title><g fill-rule="evenodd"><path d="M98.12 48h.38v45h-31V64.91c14.03-.85 25.77-7.62 30.62-16.91zM31 0v28.09C17 28.94 5.23 35.71.38 45H0V0z" fill="#0092b6"></path><path d="M45 33a59.71 59.71 0 0 1 15.5 2C43.28 39.64 31 51.77 31 66v27H0V65c.74-17.76 20.6-32 45-32z" fill="#ec0033"></path><path d="M98.5 0v28c-.72 17.76-20.58 32-45 32A59.71 59.71 0 0 1 38 58c17.22-4.63 29.5-16.76 29.5-31V0z" fill="#ec0033"></path></g></svg></svg> <!----></g></g> <g transform="translate(67,10.139867782592773)"><g data-gra="path-name" fill-rule="" class="tp-name iconsvg-namesvg"><g transform="scale(1)"><g><path d="M24.49-15.56C24.49-15.15 24.29-14.95 23.88-14.95L7.72-14.95C7.31-14.95 7.11-15.15 7.11-15.56L7.11-26.47C7.11-26.87 7.31-27.08 7.72-27.08L10.14-27.08C10.55-27.08 10.75-27.28 10.75-27.68 10.75-28.09 10.55-28.29 10.14-28.29L2.47-28.29C2.06-28.29 1.86-28.09 1.86-27.68 1.86-27.28 2.06-27.08 2.47-27.08L5.29-27.08C5.7-27.08 5.9-26.87 5.9-26.47L5.9-1.82C5.9-1.41 5.7-1.21 5.29-1.21L2.47-1.21C2.06-1.21 1.86-1.01 1.86-0.61 1.86-0.2 2.06 0 2.47 0L10.14 0C10.55 0 10.75-0.2 10.75-0.61 10.75-1.01 10.55-1.21 10.14-1.21L7.72-1.21C7.31-1.21 7.11-1.41 7.11-1.82L7.11-13.13C7.11-13.54 7.31-13.74 7.72-13.74L23.88-13.74C24.29-13.74 24.49-13.54 24.49-13.13L24.49-1.82C24.49-1.41 24.29-1.21 23.88-1.21L21.46-1.21C21.06-1.21 20.85-1.01 20.85-0.61 20.85-0.2 21.06 0 21.46 0L29.14 0C29.54 0 29.74-0.2 29.74-0.61 29.74-1.01 29.54-1.21 29.14-1.21L26.31-1.21C25.9-1.21 25.7-1.41 25.7-1.82L25.7-26.47C25.7-26.87 25.9-27.08 26.31-27.08L29.14-27.08C29.54-27.08 29.74-27.28 29.74-27.68 29.74-28.09 29.54-28.29 29.14-28.29L21.46-28.29C21.06-28.29 20.85-28.09 20.85-27.68 20.85-27.28 21.06-27.08 21.46-27.08L23.88-27.08C24.29-27.08 24.49-26.87 24.49-26.47ZM33.5-1.21C33.1-1.21 32.9-1.01 32.9-0.61 32.9-0.2 33.1 0 33.5 0L41.59 0C41.99 0 42.19-0.2 42.19-0.61 42.19-1.01 41.99-1.21 41.59-1.21L38.76-1.21C38.35-1.21 38.15-1.41 38.15-1.82L38.15-19.6C38.15-20 37.95-20.21 37.54-20.21L33.5-20.21C33.1-20.21 32.9-20 32.9-19.6 32.9-19.2 33.1-18.99 33.5-18.99L36.33-18.99C36.74-18.99 36.94-18.79 36.94-18.39L36.94-1.82C36.94-1.41 36.74-1.21 36.33-1.21ZM36.17-23.88C36.82-23.28 37.87-23.28 38.47-23.88 39.12-24.53 39.12-25.58 38.47-26.19 37.87-26.83 36.82-26.83 36.17-26.19 35.56-25.58 35.56-24.53 36.17-23.88ZM49.43-1.21C49.02-1.21 48.82-1.41 48.82-1.82L48.82-13.94C49.34-14.87 50.03-15.8 50.88-16.65 52.7-18.47 54.72-19.4 56.9-19.4 61.47-19.4 64.58-16.08 64.58-9.9 64.58-4.36 61.06-1.21 54.88-1.21ZM54.88 0C61.75 0 65.79-3.76 65.79-9.9 65.79-13.26 64.98-15.88 63.37-17.78 61.75-19.68 59.61-20.61 56.9-20.61 55.2-20.61 53.71-20.21 52.38-19.4 51.12-18.63 50.15-17.78 49.47-16.93 49.02-16.49 48.82-16.81 48.82-17.34L48.82-19.6C48.82-20 48.62-20.21 48.21-20.21L44.17-20.21C43.77-20.21 43.57-20 43.57-19.6 43.57-19.2 43.77-18.99 44.17-18.99L47-18.99C47.4-18.99 47.61-18.79 47.61-18.39L47.61 6.26C47.61 6.67 47.4 6.87 47 6.87L44.17 6.87C43.77 6.87 43.57 7.07 43.57 7.48 43.57 7.88 43.77 8.08 44.17 8.08L52.66 8.08C53.06 8.08 53.26 7.88 53.26 7.48 53.26 7.07 53.06 6.87 52.66 6.87L49.43 6.87C49.02 6.87 48.82 6.67 48.82 6.26L48.82 0.61C48.82 0.2 49.02 0 49.43 0ZM72.74-2.51C74.56-0.57 76.95 0.4 79.9 0.4 82.85 0.4 85.23-0.57 87.05-2.51 88.87-4.45 89.8-6.99 89.8-10.1 89.8-13.22 88.87-15.76 87.05-17.7 85.23-19.64 82.85-20.61 79.9-20.61 76.95-20.61 74.56-19.64 72.74-17.7 70.93-15.76 70-13.22 70-10.1 70-6.99 70.93-4.45 72.74-2.51ZM71.21-10.1C71.21-12.89 72.02-15.15 73.59-16.85 75.17-18.55 77.27-19.4 79.9-19.4 82.52-19.4 84.63-18.55 86.2-16.85 87.78-15.15 88.59-12.89 88.59-10.1 88.59-7.27 87.78-5.01 86.2-3.31 84.63-1.66 82.52-0.81 79.9-0.81 77.27-0.81 75.13-1.66 73.55-3.31 71.98-5.01 71.21-7.27 71.21-10.1ZM115.26-15.56C115.26-15.15 115.06-14.95 114.65-14.95L98.49-14.95C98.08-14.95 97.88-15.15 97.88-15.56L97.88-26.47C97.88-26.87 98.08-27.08 98.49-27.08L100.91-27.08C101.32-27.08 101.52-27.28 101.52-27.68 101.52-28.09 101.32-28.29 100.91-28.29L93.23-28.29C92.83-28.29 92.63-28.09 92.63-27.68 92.63-27.28 92.83-27.08 93.23-27.08L96.06-27.08C96.47-27.08 96.67-26.87 96.67-26.47L96.67-1.82C96.67-1.41 96.47-1.21 96.06-1.21L93.23-1.21C92.83-1.21 92.63-1.01 92.63-0.61 92.63-0.2 92.83 0 93.23 0L100.91 0C101.32 0 101.52-0.2 101.52-0.61 101.52-1.01 101.32-1.21 100.91-1.21L98.49-1.21C98.08-1.21 97.88-1.41 97.88-1.82L97.88-13.13C97.88-13.54 98.08-13.74 98.49-13.74L114.65-13.74C115.06-13.74 115.26-13.54 115.26-13.13L115.26-1.82C115.26-1.41 115.06-1.21 114.65-1.21L112.23-1.21C111.82-1.21 111.62-1.01 111.62-0.61 111.62-0.2 111.82 0 112.23 0L119.91 0C120.31 0 120.51-0.2 120.51-0.61 120.51-1.01 120.31-1.21 119.91-1.21L117.08-1.21C116.67-1.21 116.47-1.41 116.47-1.82L116.47-26.47C116.47-26.87 116.67-27.08 117.08-27.08L119.91-27.08C120.31-27.08 120.51-27.28 120.51-27.68 120.51-28.09 120.31-28.29 119.91-28.29L112.23-28.29C111.82-28.29 111.62-28.09 111.62-27.68 111.62-27.28 111.82-27.08 112.23-27.08L114.65-27.08C115.06-27.08 115.26-26.87 115.26-26.47ZM132.88-0.81C130.41-0.81 128.43-1.66 126.9-3.31 125.56-4.81 124.8-6.75 124.63-9.09 124.59-9.5 124.8-9.7 125.24-9.7L141.16-9.7C141.97-9.7 142.38-10.1 142.38-10.91L142.38-11.52C142.38-14.02 141.49-16.17 139.71-17.94 137.93-19.72 135.67-20.61 132.88-20.61 130.01-20.61 127.75-19.64 126.01-17.7 124.27-15.72 123.38-13.17 123.38-10.1 123.38-7.03 124.27-4.49 126.01-2.51 127.75-0.57 130.01 0.4 132.88 0.4 137.28 0.4 139.71-1.41 141.12-2.71 141.41-2.95 141.45-3.23 141.16-3.56 140.88-3.84 140.64-4.04 140.27-3.72 139.06-2.63 137.08-0.81 132.88-0.81ZM124.67-11.52C124.88-13.62 125.64-15.4 126.9-16.81 128.43-18.55 130.41-19.4 132.88-19.4 135.26-19.4 137.2-18.63 138.78-17.05 140.35-15.52 141.16-13.66 141.16-11.52 141.16-11.11 140.96-10.91 140.56-10.91L125.24-10.91C124.8-10.91 124.63-11.11 124.67-11.52ZM145.57-1.21C145.16-1.21 144.96-1.01 144.96-0.61 144.96-0.2 145.16 0 145.57 0L153.65 0C154.05 0 154.26-0.2 154.26-0.61 154.26-1.01 154.05-1.21 153.65-1.21L150.82-1.21C150.42-1.21 150.22-1.41 150.22-1.82L150.22-27.68C150.22-28.09 150.01-28.29 149.61-28.29L145.57-28.29C145.16-28.29 144.96-28.09 144.96-27.68 144.96-27.28 145.16-27.08 145.57-27.08L148.4-27.08C148.8-27.08 149-26.87 149-26.47L149-1.82C149-1.41 148.8-1.21 148.4-1.21L145.57-1.21ZM161.49-1.21C161.09-1.21 160.88-1.41 160.88-1.82L160.88-13.94C161.41-14.87 162.1-15.8 162.95-16.65 164.76-18.47 166.78-19.4 168.97-19.4 173.53-19.4 176.65-16.08 176.65-9.9 176.65-4.36 173.13-1.21 166.95-1.21ZM166.95 0C173.82 0 177.86-3.76 177.86-9.9 177.86-13.26 177.05-15.88 175.43-17.78 173.82-19.68 171.67-20.61 168.97-20.61 167.27-20.61 165.77-20.21 164.44-19.4 163.19-18.63 162.22-17.78 161.53-16.93 161.09-16.49 160.88-16.81 160.88-17.34L160.88-19.6C160.88-20 160.68-20.21 160.28-20.21L156.24-20.21C155.83-20.21 155.63-20 155.63-19.6 155.63-19.2 155.83-18.99 156.24-18.99L159.07-18.99C159.47-18.99 159.67-18.79 159.67-18.39L159.67 6.26C159.67 6.67 159.47 6.87 159.07 6.87L156.24 6.87C155.83 6.87 155.63 7.07 155.63 7.48 155.63 7.88 155.83 8.08 156.24 8.08L164.72 8.08C165.13 8.08 165.33 7.88 165.33 7.48 165.33 7.07 165.13 6.87 164.72 6.87L161.49 6.87C161.09 6.87 160.88 6.67 160.88 6.26L160.88 0.61C160.88 0.2 161.09 0 161.49 0Z" transform="translate(-1.8600000143051147, 28.290000915527344)"></path></g> <!----> <!----> <!----> <!----> <!----> <!----> <!----></g></g> <!----></g></g><defs v-gra="od"></defs></svg>